<?xml version="1.0" encoding="utf-8"?>
<!-- Generator: Adobe Illustrator 25.2.1, SVG Export Plug-In . SVG Version: 6.00 Build 0)  -->
<svg version="1.1" id="Layer_1" xmlns="http://www.w3.org/2000/svg" xmlns:xlink="http://www.w3.org/1999/xlink" x="0px" y="0px"
	 viewBox="0 0 1000 728.232" enable-background="new 0 0 1000 728.232" xml:space="preserve">
<g id="XMLID_1_">
	<rect id="XMLID_3_" fill="#005E70" width="1000" height="728.232"/>
	<path id="XMLID_6_" fill="#FFFFFF" d="M668.44,165.195c-0.59-0.112-1.152-0.225-1.784-0.295l-0.702-0.112
		c-0.997-0.155-2.051-0.267-3.049-0.337c-0.744-0.07-1.419-0.112-2.121-0.183c-1.222-0.07-2.487-0.07-3.681-0.07
		c-0.562,0-0.899,0-1.419,0c-0.927,0-1.939,0.07-2.894,0.154c-0.562,0-1.082,0.042-1.63,0.112c-0.787,0.042-1.56,0.155-2.304,0.267
		l-0.59,0.056l-0.702,0.112l-0.899,0.112c-0.365,0.07-0.744,0.154-1.082,0.182c-0.562,0.112-1.039,0.225-1.602,0.337
		c-3.049,0.674-5.942,1.517-8.626,2.599c-1.377,0.52-2.711,1.082-3.976,1.714c-0.997,0.519-2.009,1.039-2.978,1.601
		c-0.927,0.562-1.826,1.082-2.753,1.672c-0.45,0.337-0.928,0.674-1.419,0.997c-0.407,0.295-0.815,0.59-1.222,0.899
		c-0.815,0.632-1.63,1.306-2.346,1.967c-0.744,0.632-1.447,1.264-2.051,1.897c-0.562,0.562-1.081,1.11-1.63,1.714
		c-0.562,0.59-1.04,1.152-1.559,1.784c-0.59,0.674-1.082,1.377-1.601,2.079c-0.408,0.52-0.744,1.082-1.082,1.63
		c-0.295,0.365-0.52,0.745-0.744,1.11c-1.377,2.262-2.599,4.65-3.568,7.207c-1.222,3.203-2.149,6.659-2.641,10.298
		c-0.155,1.152-0.267,2.346-0.337,3.526c-0.07,0.927-0.07,1.855-0.07,2.782c0,0.702,0,1.419,0,2.079
		c0.07,0.745,0.155,1.447,0.225,2.149l0.042,0.478c0.154,0.857,0.267,1.672,0.407,2.486c0.07,0.295,0.113,0.632,0.183,0.927
		c0.154,0.674,0.337,1.377,0.478,2.009c0.295,0.857,0.52,1.714,0.787,2.529c0.365,0.998,0.702,1.967,1.11,2.936
		c0.632,1.517,1.307,2.978,2.079,4.355c0.477,0.787,0.899,1.559,1.377,2.346c0.365,0.59,0.787,1.194,1.11,1.742
		c0.562,0.702,1.082,1.447,1.602,2.122c0.562,0.702,1.152,1.419,1.672,2.051c0.744,0.815,1.377,1.559,2.121,2.234l0.365,0.365
		c0.59,0.52,1.194,1.11,1.897,1.714c0.519,0.408,0.969,0.857,1.517,1.264c0.52,0.408,0.997,0.815,1.601,1.222
		c0.675,0.45,1.377,0.97,2.122,1.447c0.787,0.478,1.602,0.998,2.458,1.489c1.742,0.969,3.681,1.896,5.76,2.753
		c0.787,0.337,1.63,0.632,2.458,0.899c0.815,0.295,1.714,0.562,2.571,0.787c1.518,0.45,3.119,0.815,4.791,1.152
		c1.377,0.267,2.753,0.478,4.201,0.674c1.419,0.155,2.894,0.295,4.467,0.365c0.787,0.042,1.489,0.07,2.304,0.07
		c0.365,0,0.745,0,1.082,0c2.754,0,5.31-0.07,7.699-0.295l0.449-0.042c0.927-0.07,1.897-0.182,2.754-0.295
		c1.377-0.155,2.641-0.365,3.864-0.59c0.786-0.112,1.517-0.267,2.304-0.45c1.11-0.225,2.192-0.478,3.203-0.745
		c0.787-0.225,1.517-0.45,2.234-0.632c0.815-0.267,1.672-0.562,2.416-0.815l0.787-0.267c0.365-0.112,0.899-0.295,1.489-0.562
		c0.787-0.295,1.742-0.674,2.824-1.152c0.674-0.267,1.377-0.562,2.079-0.899c0.632-0.295,1.335-0.632,2.009-0.969
		c0.295-0.155,0.59-0.267,0.857-0.408l-0.014-16.844c-0.182,0.112-0.45,0.267-0.59,0.365l-1.151,0.702
		c-1.194,0.674-2.262,1.335-3.414,1.967c-1.222,0.632-2.416,1.264-3.638,1.826c-2.079,0.997-4.046,1.826-6.027,2.529
		c-3.681,1.306-7.024,2.149-10.031,2.669c-0.365,0.07-0.744,0.112-1.039,0.183c-0.815,0.112-1.63,0.225-2.346,0.295
		c-1.194,0.113-2.304,0.183-3.274,0.267c-0.674,0-1.306,0-1.826,0c-1.222,0-2.416,0-3.681-0.112
		c-1.489-0.112-2.978-0.267-4.496-0.52c-2.486-0.393-4.987-0.997-7.361-1.882c-0.365-0.112-0.745-0.267-1.082-0.407
		c-0.225-0.07-0.45-0.183-0.674-0.267c-0.408-0.183-0.787-0.365-1.152-0.52c-0.815-0.407-1.672-0.815-2.458-1.264
		c-0.365-0.267-0.787-0.477-1.194-0.744c-0.421-0.253-0.843-0.52-1.208-0.773c-0.477-0.337-0.927-0.674-1.447-1.039
		c-0.45-0.408-0.899-0.787-1.307-1.11l-0.59-0.52l-0.267-0.267l-0.182-0.154l-0.183-0.183c-0.787-0.744-1.447-1.517-2.149-2.262
		c-0.337-0.449-0.674-0.857-0.969-1.307c-0.337-0.407-0.632-0.857-0.815-1.264c-0.295-0.365-0.562-0.787-0.787-1.194
		c-0.337-0.59-0.703-1.194-0.97-1.784c-0.267-0.478-0.478-0.998-0.674-1.489c-0.365-0.857-0.745-1.714-0.927-2.529
		c-0.225-0.632-0.407-1.264-0.52-1.897c-0.52-1.742-0.745-3.386-0.787-4.762c-0.112-0.52-0.112-0.997-0.154-1.447
		c-0.042-0.674-0.042-1.264-0.042-1.742c0-0.295,0-0.674,0-1.039c0.042-0.998,0.113-2.192,0.337-3.611
		c0.154-0.857,0.295-1.742,0.52-2.712c0.182-0.632,0.365-1.264,0.562-1.939c0.182-0.59,0.407-1.194,0.632-1.826
		c0.155-0.407,0.365-0.815,0.59-1.264c0.225-0.562,0.478-1.152,0.787-1.714c0.225-0.449,0.45-0.857,0.745-1.307
		c0.562-0.969,1.152-1.939,1.896-2.866c0.267-0.365,0.52-0.702,0.787-1.039c0.365-0.407,0.744-0.857,1.152-1.264
		c0.155-0.225,0.365-0.478,0.59-0.674c3.119-3.09,6.575-5.423,10.143-7.067c0.59-0.267,1.152-0.478,1.742-0.702
		c0.59-0.225,1.11-0.45,1.672-0.632c0.674-0.183,1.306-0.407,1.897-0.59c0.632-0.155,1.222-0.295,1.826-0.449
		c0.59-0.113,1.152-0.225,1.784-0.337c0.703-0.155,1.307-0.225,1.939-0.295c0.674-0.113,1.335-0.183,1.967-0.225
		c1.222-0.112,2.458-0.182,3.639-0.182c0.407,0,0.787,0,1.152,0c0.899,0.042,1.742,0.07,2.571,0.112
		c0.632,0.042,1.151,0.07,1.714,0.155c1.04,0.112,2.121,0.225,3.049,0.365c0.899,0.155,1.742,0.295,2.529,0.45
		c1.152,0.267,2.346,0.52,3.273,0.787c0.674,0.155,1.264,0.337,1.827,0.478c0.815,0.267,1.517,0.477,2.051,0.674
		c0.927,0.295,1.447,0.52,1.447,0.52c0.815,0.267,1.672,0.59,2.458,0.927c1.082,0.407,2.122,0.899,3.091,1.335
		c0.815,0.365,1.602,0.745,2.346,1.11c0.59,0.295,1.152,0.59,1.672,0.857c0.927,0.478,1.714,0.899,2.346,1.264l1.742,0.927
		l-0.028-16.578c0,0-0.998-0.407-2.824-1.082c-0.787-0.295-1.742-0.675-2.753-1.04c-0.59-0.182-1.222-0.407-1.897-0.632
		c-0.562-0.183-1.04-0.365-1.672-0.562c-0.59-0.225-1.222-0.408-1.939-0.632c-0.478-0.154-0.97-0.295-1.489-0.45l-0.478-0.154
		c-0.478-0.112-0.97-0.267-1.489-0.408c-0.59-0.154-1.222-0.295-1.826-0.45c-0.45-0.112-0.815-0.182-1.194-0.295
		c-0.703-0.155-1.335-0.295-2.009-0.45C669.816,165.462,669.114,165.307,668.44,165.195 M585.482,147.943h131.692v123.923
		l-131.692,0.014V147.943L585.482,147.943z"/>
	<path id="XMLID_7_" fill="#FFFFFF" d="M484.261,216.304v24.346h15.805c0,0,0.337,0,0.857-0.042c0.52,0,1.264-0.042,2.192-0.112
		c1.714-0.155,3.976-0.478,6.167-1.222c1.967-0.674,3.906-1.672,5.395-3.161c0.562-0.562,1.04-1.152,1.419-1.742
		c1.222-1.939,1.559-3.934,1.63-5.058c0.042-0.478,0.042-0.787,0.042-0.787s0-0.225,0-0.59c-0.056-0.478-0.084-1.377-0.351-2.346
		c-0.295-1.152-0.857-2.487-1.854-3.751c-0.182-0.225-0.365-0.45-0.59-0.674c-0.449-0.45-0.927-0.857-1.447-1.222
		c-0.857-0.632-1.826-1.194-2.894-1.63c-1.419-0.632-3.007-1.082-4.763-1.419c-0.899-0.183-1.854-0.295-2.824-0.407
		c-0.59-0.042-1.194-0.07-1.826-0.113c-0.52-0.028-1.124-0.07-1.644-0.07H484.261L484.261,216.304z"/>
	<path id="XMLID_8_" fill="#FFFFFF" d="M484.261,179.286v23.082h7.657c0,0,0.52,0,1.194-0.042c0.519,0,1.151-0.042,1.714-0.07
		c1.602-0.112,3.751-0.337,5.943-0.927c0.407-0.113,0.857-0.267,1.264-0.408c1.714-0.59,3.344-1.489,4.608-2.753
		c1.04-0.998,1.714-2.079,2.149-3.161c0.52-1.335,0.702-2.599,0.787-3.498c0.07-0.815,0.07-1.306,0.07-1.306
		s0.042-0.365-0.042-0.998c-0.042-0.997-0.267-2.641-1.04-4.2c-0.365-0.745-0.899-1.489-1.602-2.192
		c-0.857-0.857-1.939-1.489-3.049-2.009c-2.149-0.927-4.608-1.307-6.687-1.447c-0.899-0.07-1.714-0.07-2.416-0.07H484.261
		L484.261,179.286z"/>
	<path id="XMLID_11_" fill="#FFFFFF" d="M468.277,165.307v89.279h33.576c0,0,16.395,0.45,25.456-8.584
		c7.362-7.404,6.842-15.903,6.842-15.903s0.562-8.879-6.322-15.72c-5.76-5.802-13.192-7.319-13.192-7.319s3.385-1.602,5.942-4.159
		c1.152-1.194,5.507-5.085,5.507-14.498c0-9.441-6.322-14.905-6.322-14.905s-6.954-8.176-22.492-8.176L468.277,165.307
		L468.277,165.307z M433.717,147.943h131.692v123.923l-131.692,0.014V147.943L433.717,147.943z"/>
	<path id="XMLID_12_" fill="#FFFFFF" d="M332.495,216.304v24.346h15.833c0,0,0.295,0,0.815-0.042c0.52,0,1.264-0.042,2.192-0.112
		c1.742-0.155,3.976-0.478,6.168-1.222c2.009-0.674,3.933-1.672,5.394-3.161c0.562-0.562,1.04-1.152,1.447-1.742
		c1.222-1.939,1.517-3.934,1.601-5.058c0.042-0.478,0.042-0.787,0.042-0.787s0-0.225,0-0.59c0-0.478-0.07-1.377-0.295-2.346
		c-0.337-1.152-0.899-2.487-1.855-3.751c-0.182-0.225-0.407-0.45-0.632-0.674c-0.45-0.45-0.899-0.857-1.419-1.222
		c-0.857-0.632-1.855-1.194-2.936-1.63c-1.419-0.632-3.006-1.082-4.762-1.419c-0.899-0.183-1.826-0.295-2.782-0.407
		c-0.632-0.042-1.222-0.07-1.854-0.113c-0.52-0.028-1.124-0.07-1.672-0.07H332.495L332.495,216.304z"/>
	<path id="XMLID_13_" fill="#FFFFFF" d="M332.495,179.286v23.082h7.656c0,0,0.52,0,1.194-0.042c0.52,0,1.152-0.042,1.714-0.07
		c1.602-0.112,3.751-0.337,5.942-0.927c0.407-0.113,0.857-0.267,1.264-0.45c1.714-0.59,3.344-1.49,4.65-2.754
		c0.997-0.997,1.672-2.079,2.121-3.161c0.562-1.335,0.745-2.599,0.787-3.498c0.07-0.815,0.07-1.307,0.07-1.307s0.042-0.365,0-0.997
		c-0.07-0.997-0.267-2.641-1.082-4.201c-0.365-0.744-0.899-1.489-1.602-2.191c-0.857-0.857-1.896-1.489-3.006-2.009
		c-2.164-0.927-4.65-1.25-6.729-1.405c-0.899-0.07-1.714-0.07-2.416-0.07H332.495L332.495,179.286z"/>
	<path id="XMLID_16_" fill="#FFFFFF" d="M316.522,165.307v89.279h33.59c0,0,16.395,0.45,25.428-8.626
		c7.361-7.361,6.842-15.875,6.842-15.875s0.52-8.879-6.28-15.72c-5.802-5.802-13.234-7.362-13.234-7.362s3.343-1.559,5.942-4.13
		c1.194-1.194,5.465-5.085,5.465-14.498c0-9.483-6.28-14.906-6.28-14.906s-6.912-8.176-22.492-8.176L316.522,165.307
		L316.522,165.307z M281.99,147.943h131.692v123.923L281.99,271.88V147.943L281.99,147.943z"/>
	<polygon id="XMLID_17_" fill="#FFFFFF" points="183.706,393.416 116.694,393.416 116.694,358.224 289.647,358.224 289.647,393.416 
		222.621,393.416 222.621,576.864 183.706,576.864 	"/>
	<polygon id="XMLID_18_" fill="#FFFFFF" points="328.857,358.224 371.452,358.224 412.557,515.749 413.163,515.749 462.261,358.224 
		500.545,358.224 548.717,515.749 549.352,515.749 592.282,358.224 631.871,358.224 568.189,576.889 531.171,576.889 
		480.471,410.414 479.879,410.414 429.219,576.889 393.381,576.889 	"/>
	<path id="XMLID_21_" fill="#FFFFFF" d="M764.644,352.646c68.248-1.222,116.379,44.492,116.379,114.595
		c0,68.277-48.13,113.962-116.379,115.227c-67.392,0-115.564-45.686-115.564-113.962
		C649.038,398.361,697.253,352.646,764.644,352.646 M764.939,547.234c45.391,0,75.301-34.574,75.301-81.258
		c0-43.523-29.966-78.138-75.301-78.138c-45.082,0-75.09,34.602-75.09,78.138C689.849,512.702,719.843,547.234,764.939,547.234z"/>
</g>
</svg>
