<svg id="svg2" xmlns="http://www.w3.org/2000/svg" width="1000" height="166.84" viewBox="0 0 1000 166.84">
  <defs>
    <style>
      .cls-1 {
        fill: #f54997;
      }
    </style>
  </defs>
  <path id="path3068" d="M233.46,495.94c0,13.35-16.61,12.56-16.61,12.56h-16.6V484.38h16.6c17.11-.1,16.61,11.56,16.61,11.56m-33.21-48.33H212.9c13.15.7,12.65,10.48,12.65,10.48,0,12.16-14.53,12.36-14.53,12.36H200.25Zm30.15,27.58s11.36-4.84,11.26-17.69c0,0,1.73-21.05-26.17-23.62h-31v88.26H220s29.65.1,29.65-24.91c0,0,.69-17-19.27-22m-80.12-58.61H280.6V539.39H150.28ZM83.17,495.94c0,13.35-16.6,12.56-16.6,12.56H50V484.38h16.6c17.1-.1,16.6,11.56,16.6,11.56M50,447.61H62.62c13.14.7,12.65,10.48,12.65,10.48,0,12.16-14.53,12.36-14.53,12.36H50V447.61Zm30.14,27.58s11.37-4.84,11.27-17.69c0,0,1.73-21.05-26.17-23.62h-31v88.26H69.73s29.65.1,29.65-24.91c0,0,.7-17-19.27-22M0,416.58H130.32V539.39H0ZM404.3,440.2v16.31s-15.92-9.78-33.51-10c0,0-32.81-.64-34.29,31.45,0,0-1.19,29.53,33.9,31.21,0,0,14.72,1.78,34.69-11v16.9S378.3,531,347.27,518.78c0,0-26.1-9.53-27.08-40.8,0,0-1.09-32.14,33.7-42.82,0,0,9.29-3.56,26-2,0,0,10,1,24.42,7M300.57,539.39H430.89V416.58H300.57Z" transform="translate(0 -416.58)"/>
  <g id="g4">
    <path id="path6" class="cls-1" d="M848.06,464.93l6.5-16.26H823.43l-18.59,59.94h-.46l-20-59.94H750.48l4.64,11.15h-.46c-7.9-9.76-20.91-13.47-35.31-13.47-13.48,0-20.45,1.86-32.07,5.11,0,0-7,21.37-7.43,22.3s.46,2.32,1.86,1.4c7.9-3.72,18.12-7.9,31.13-7.9,11.15,0,20.44,3.25,20.91,15.79a72.83,72.83,0,0,0-14.4-1.39c-13.48,0-34.85,2.32-43.22,17.19h-.46V416.61H644.53v29.27h-.46c-6-19.05-23.23-29.27-53.9-29.27h-39v33l13.47,25.56c1.86,1.85,2.33,4.18,0,6.5l-13.47,26v33h32.52V501.18h12.55c25.09,0,41.82-11.62,46.93-29.74h.47v69.23h31.13v-13h.46c5.58,10.22,17.66,14.41,30.67,14.87,15.8.47,24.63-7.43,27.88-9.76.93-.46,1.39-.93,1.39,0,0,2.79.47,5.58.47,7.44h28.81a115.13,115.13,0,0,1-1.86-21.84V484a22.37,22.37,0,0,0-.47-5.57h.47l25.09,63.66s-4.18,14.4-17.19,14.4A26.37,26.37,0,0,1,757,553.22c-.93-.47-1.39,0-1.86.93l-7.43,23.23c4.65,2.32,15.8,6,27.88,6,26.48,0,38.1-29.27,46-49.72l19-48.79h.47a52.8,52.8,0,0,0-.47,8.83c0,30.2,22.77,48.33,53,48.33a84,84,0,0,0,26.95-4.65s6.51-19,7.9-23.23c.47-1.4-.93-2.33-1.86-1.4-7.9,4.18-16.72,8.37-27,8.37-15.33,0-25.09-5.11-26.48-17.66H934v36.71h31.13v-39c0-20,10.69-28.81,22.77-28.81a15.3,15.3,0,0,1,5.11.93l7-24.17c0-.92,0-1.39-.93-1.85a56.62,56.62,0,0,0-9.29-.93c-13.48,0-23.24,7.43-28.81,19h-.47V448.67H932.16v30.2h-.47c-5.11-18.58-18.12-32.06-43.21-32.06C871.29,446.81,856.88,453.32,848.06,464.93ZM592,477.48h-8.37V440.31H592c11.15,0,20,6,20,18.58,0,13-8.83,18.59-20,18.59m121.74,44.14c-7.44,0-13-3.72-13-10.22,0-8.83,8.36-12.08,19-12.08,4.65,0,9.29.46,13,.46.46,10.69-7,21.84-19.05,21.84m157.05-35.78c.47-10.68,6-19,17.2-19,12.54,0,17.19,8.83,17.19,19Z" transform="translate(0 -416.58)"/>
    <path id="path8" class="cls-1" d="M514.89,416.61H484.23v31.13h30.66v-13l49.72,43.68-49.72,44.14V463.07H484.23v77.6h30.66l68.77-62.26" transform="translate(0 -416.58)"/>
  </g>
</svg>
