<?xml version="1.0" encoding="utf-8"?>
<!-- Generator: Adobe Illustrator 24.3.0, SVG Export Plug-In . SVG Version: 6.00 Build 0)  -->
<svg version="1.1" id="Layer_1" xmlns="http://www.w3.org/2000/svg" xmlns:xlink="http://www.w3.org/1999/xlink" x="0px" y="0px"
	 viewBox="0 0 1660.797 378.151" enable-background="new 0 0 1660.797 378.151" xml:space="preserve">
<g>
	<g>
		<path fill="#10A88D" d="M114.501,131.818v114.501h114.501V131.818H114.501z M194.349,212.624
			c-1.956,2.763-4.744,4.895-8.363,6.396c-3.621,1.502-7.97,2.252-13.049,2.252h-25.66v-64.407h24.171
			c7.122,0,12.64,1.427,16.552,4.279c3.911,2.853,5.868,6.952,5.868,12.296c0,3.063-0.701,5.72-2.102,7.972
			c-1.401,2.252-3.474,4.04-6.218,5.36c3.795,1.261,6.7,3.258,8.714,5.99c2.014,2.733,3.022,6.051,3.022,9.954
			C197.283,206.559,196.304,209.862,194.349,212.624z M177.972,181.141c1.78-1.471,2.671-3.527,2.671-6.171
			c0-5.103-3.475-7.656-10.422-7.656h-9.896v16.034h9.896C173.607,183.348,176.19,182.613,177.972,181.141z M171.885,193.437h-11.56
			v17.385h11.385c3.911,0,6.919-0.735,9.02-2.207c2.102-1.471,3.153-3.588,3.153-6.35
			C183.883,196.38,179.883,193.437,171.885,193.437z"/>
		<path fill="#10A88D" d="M257.626,131.818v114.501h114.5V131.818H257.626z M337.474,212.624c-1.956,2.763-4.744,4.895-8.363,6.396
			c-3.621,1.502-7.97,2.252-13.049,2.252h-25.66v-64.407h24.171c7.122,0,12.64,1.427,16.552,4.279
			c3.911,2.853,5.868,6.952,5.868,12.296c0,3.063-0.701,5.72-2.102,7.972c-1.401,2.252-3.474,4.04-6.218,5.36
			c3.795,1.261,6.7,3.258,8.714,5.99c2.014,2.733,3.022,6.051,3.022,9.954C340.408,206.559,339.43,209.862,337.474,212.624z
			 M321.098,181.141c1.78-1.471,2.671-3.527,2.671-6.171c0-5.103-3.475-7.656-10.422-7.656h-9.896v16.034h9.896
			C316.733,183.348,319.316,182.613,321.098,181.141z M315.011,193.437h-11.56v17.385h11.385c3.911,0,6.919-0.735,9.02-2.207
			c2.102-1.471,3.153-3.588,3.153-6.35C327.009,196.38,323.009,193.437,315.011,193.437z"/>
		<path fill="#10A88D" d="M400.752,246.318h114.501V131.818H400.752V246.318z M482.987,217.19c-2.668,1.472-5.758,2.635-9.273,3.487
			c-3.516,0.853-7.214,1.281-11.091,1.281c-5.152,0-9.788-0.751-13.909-2.251c-4.122-1.501-7.606-3.664-10.455-6.49
			c-2.849-2.826-5.031-6.283-6.546-10.375c-1.515-4.09-2.273-8.697-2.273-13.818c0-5.002,0.787-9.52,2.364-13.553
			c1.576-4.031,3.848-7.49,6.818-10.375c2.969-2.883,6.53-5.09,10.682-6.622c4.151-1.53,8.803-2.296,13.955-2.296
			c3.575,0,6.955,0.369,10.137,1.104c3.182,0.737,6.137,1.81,8.864,3.223v12.537c-2.486-1.647-5.182-2.898-8.091-3.752
			c-2.909-0.853-5.97-1.28-9.182-1.28c-4.425,0-8.198,0.825-11.318,2.473c-3.122,1.648-5.516,4.032-7.182,7.151
			c-1.668,3.121-2.5,6.917-2.5,11.39c0,4.474,0.802,8.286,2.409,11.434c1.605,3.15,3.939,5.548,7,7.196
			c3.06,1.648,6.773,2.472,11.137,2.472c6.666,0,12.818-1.735,18.454-5.209V217.19z"/>
	</g>
	<path fill="#10A88D" d="M572.49,117.507h120.92v26.827h-45.044V260.65h-30.833V144.334H572.49V117.507z M829.541,260.65
		c-4.537-16.149-8.972-32.298-13.313-48.452c-4.336-16.144-8.575-32.298-12.71-48.447c-4.006,16.149-8.141,32.303-12.411,48.447
		c-4.28,16.154-8.683,32.303-13.215,48.452H745.26c-6.806-23.357-13.349-46.977-19.624-70.87
		c-6.27-23.893-12.21-47.983-17.814-72.273h33.633c3.331,18.552,6.873,37.103,10.611,55.655
		c3.733,18.552,7.672,36.773,11.813,54.654c8.935-34.835,17.417-69.602,25.425-104.308h30.029
		c4.006,17.087,8.111,34.138,12.313,51.153c4.207,17.02,8.508,34.004,12.911,50.952c4.006-17.618,7.878-35.5,11.612-53.654
		c3.738-18.149,7.208-36.304,10.415-54.453h33.03c-5.599,24.29-11.544,48.38-17.814,72.273
		c-6.275,23.893-12.813,47.513-19.619,70.87H829.541z M1041.157,158.044c-3.336-9.137-8.105-16.948-14.313-23.424
		c-6.208-6.471-13.684-11.441-22.424-14.911c-8.74-3.47-18.515-5.208-29.328-5.208c-10.812,0-20.588,1.738-29.333,5.208
		c-8.744,3.47-16.211,8.441-22.419,14.911c-6.208,6.476-10.982,14.287-14.313,23.424c-3.341,9.147-5.012,19.454-5.012,30.931
		c0,11.349,1.67,21.625,5.012,30.833c3.331,9.209,8.105,17.087,14.313,23.625c6.208,6.538,13.674,11.544,22.419,15.014
		c8.745,3.47,18.521,5.202,29.333,5.202c10.812,0,20.588-1.732,29.328-5.202c8.74-3.47,16.216-8.477,22.424-15.014
		c6.208-6.538,10.978-14.416,14.313-23.625c3.336-9.209,5.007-19.485,5.007-30.833
		C1046.164,177.498,1044.493,167.191,1041.157,158.044z M1009.53,214.802c-3.073,7.079-7.548,12.514-13.416,16.319
		c-5.878,3.805-12.88,5.703-21.021,5.703c-8.142,0-15.154-1.897-21.021-5.703c-5.878-3.805-10.343-9.24-13.416-16.319
		c-3.073-7.069-4.604-15.68-4.604-25.827c0-10.142,1.531-18.748,4.604-25.827c3.073-7.069,7.538-12.478,13.416-16.216
		c5.867-3.733,12.88-5.605,21.021-5.605c8.141,0,15.143,1.872,21.021,5.605c5.868,3.738,10.343,9.147,13.416,16.216
		c3.063,7.079,4.599,15.685,4.599,25.827C1014.129,199.122,1012.593,207.733,1009.53,214.802z"/>
	<g>
		<g>
			<path fill="#10A88D" d="M1141.44,174.864c-3.048-4.759-6.165-9.573-9.346-14.44c-3.181-4.867-6.351-9.681-9.506-14.441
				c-3.157-4.759-6.285-9.386-9.386-13.879v42.761h-9.787v-57.36h10.268c4.814,6.952,9.561,13.958,14.241,21.019
				c4.679,7.059,9.346,14.227,13.999,21.5v-42.519h9.787v57.36H1141.44z"/>
			<path fill="#10A88D" d="M1189.853,116.3c4.277,0,8.129,0.696,11.552,2.085c3.422,1.392,6.378,3.397,8.865,6.018
				s4.385,5.776,5.697,9.467c1.309,3.691,1.965,7.808,1.965,12.355s-0.657,8.652-1.965,12.313c-1.312,3.665-3.197,6.807-5.656,9.427
				c-2.461,2.62-5.416,4.627-8.866,6.016c-3.449,1.391-7.314,2.087-11.592,2.087c-4.28,0-8.13-0.696-11.552-2.087
				c-3.425-1.389-6.378-3.396-8.866-6.016c-2.487-2.62-4.385-5.776-5.695-9.467c-1.312-3.691-1.965-7.808-1.965-12.355
				c0-4.545,0.654-8.65,1.965-12.315c1.31-3.662,3.195-6.805,5.656-9.425c2.459-2.62,5.416-4.625,8.865-6.018
				C1181.711,116.997,1185.573,116.3,1189.853,116.3z M1189.853,167.243c3.636,0,6.766-0.842,9.386-2.528
				c2.62-1.684,4.625-4.09,6.018-7.22c1.389-3.128,2.085-6.886,2.085-11.271c0-4.44-0.696-8.223-2.085-11.353
				c-1.392-3.128-3.397-5.534-6.018-7.22c-2.62-1.684-5.75-2.526-9.386-2.526c-3.637,0-6.767,0.842-9.386,2.526
				c-2.622,1.686-4.627,4.092-6.018,7.22c-1.391,3.13-2.085,6.887-2.085,11.272c0,4.385,0.695,8.156,2.085,11.312
				c1.391,3.156,3.396,5.575,6.018,7.26C1183.086,166.401,1186.216,167.243,1189.853,167.243z"/>
			<path fill="#10A88D" d="M1238.023,152.882v21.982h-10.027v-57.36h19.734c7.434,0,13.13,1.537,17.089,4.612
				c3.957,3.076,5.936,7.45,5.936,13.118c0,3.798-0.962,7.047-2.888,9.748c-1.926,2.701-4.68,4.72-8.263,6.056
				c2.513,3.852,5.001,7.757,7.46,11.713c2.459,3.96,4.894,7.997,7.301,12.114h-11.713c-2.085-3.742-4.21-7.433-6.376-11.072
				c-2.168-3.636-4.373-7.301-6.62-10.99c-0.641,0.053-1.31,0.079-2.005,0.079H1238.023z M1238.023,125.606v19.175h9.065
				c4.438,0,7.782-0.763,10.029-2.288c2.247-1.523,3.368-3.943,3.368-7.259c0-3.315-1.122-5.749-3.368-7.301
				c-2.247-1.55-5.563-2.327-9.948-2.327H1238.023z"/>
			<path fill="#10A88D" d="M1277.643,117.504h47.574v8.824h-18.693v48.537h-10.189v-48.537h-18.693V117.504z"/>
			<path fill="#10A88D" d="M1371.741,174.864v-25.592h-27.918v25.592h-10.188v-57.36h10.188v22.944h27.918v-22.944h10.188v57.36
				H1371.741z"/>
			<path fill="#10A88D" d="M1393.643,117.504h38.346v8.583h-28.158v14.841h25.11v8.585h-25.11v16.767h29.682v8.583h-39.871V117.504z
				"/>
			<path fill="#10A88D" d="M1453.483,152.882v21.982h-10.027v-57.36h19.734c7.434,0,13.13,1.537,17.089,4.612
				c3.957,3.076,5.936,7.45,5.936,13.118c0,3.798-0.962,7.047-2.888,9.748c-1.926,2.701-4.68,4.72-8.263,6.056
				c2.513,3.852,5.001,7.757,7.46,11.713c2.459,3.96,4.894,7.997,7.301,12.114h-11.713c-2.085-3.742-4.21-7.433-6.376-11.072
				c-2.167-3.636-4.373-7.301-6.62-10.99c-0.641,0.053-1.31,0.079-2.005,0.079H1453.483z M1453.483,125.606v19.175h9.065
				c4.438,0,7.782-0.763,10.029-2.288c2.247-1.523,3.368-3.943,3.368-7.259c0-3.315-1.122-5.749-3.368-7.301
				c-2.246-1.55-5.563-2.327-9.948-2.327H1453.483z"/>
			<path fill="#10A88D" d="M1536.028,174.864c-3.048-4.759-6.165-9.573-9.346-14.44c-3.181-4.867-6.351-9.681-9.506-14.441
				c-3.157-4.759-6.285-9.386-9.386-13.879v42.761h-9.787v-57.36h10.268c4.814,6.952,9.561,13.958,14.241,21.019
				c4.679,7.059,9.346,14.227,13.999,21.5v-42.519h9.787v57.36H1536.028z"/>
		</g>
		<g>
			<path fill="#10A88D" d="M1103.414,203.251h10.189v57.36h-10.189V203.251z"/>
			<path fill="#10A88D" d="M1135.343,238.628v21.982h-10.027v-57.36h19.734c7.434,0,13.13,1.537,17.089,4.612
				c3.957,3.076,5.936,7.45,5.936,13.118c0,3.798-0.962,7.047-2.888,9.748c-1.926,2.701-4.68,4.72-8.263,6.056
				c2.512,3.852,5.001,7.757,7.46,11.713c2.459,3.96,4.894,7.997,7.301,12.114h-11.713c-2.085-3.742-4.21-7.433-6.376-11.072
				c-2.167-3.636-4.373-7.301-6.62-10.99c-0.641,0.053-1.31,0.079-2.005,0.079H1135.343z M1135.343,211.352v19.175h9.065
				c4.438,0,7.782-0.763,10.029-2.288c2.247-1.523,3.368-3.943,3.368-7.26c0-3.315-1.122-5.749-3.368-7.301
				c-2.246-1.55-5.563-2.327-9.948-2.327H1135.343z"/>
			<path fill="#10A88D" d="M1180.862,203.251h38.347v8.583h-28.158v14.841h25.11v8.585h-25.11v16.767h29.682v8.583h-39.871V203.251z
				"/>
			<path fill="#10A88D" d="M1232.675,203.251h10.189v48.535h28.239v8.825h-38.427V203.251z"/>
			<path fill="#10A88D" d="M1322.157,260.611c-0.803-2.353-1.619-4.694-2.447-7.019c-0.83-2.327-1.672-4.639-2.528-6.94h-25.11
				c-0.856,2.301-1.684,4.613-2.487,6.94c-0.803,2.326-1.604,4.666-2.406,7.019h-10.751c3.691-10.055,7.448-19.868,11.272-29.442
				c3.823-9.573,7.714-18.88,11.672-27.918h10.832c4.063,9.574,8.007,19.147,11.833,28.72c3.823,9.574,7.527,19.12,11.111,28.64
				H1322.157z M1295.201,238.148h18.853c-1.552-4.224-3.102-8.396-4.653-12.516c-1.552-4.118-3.13-8.21-4.733-12.274
				c-1.658,4.064-3.277,8.17-4.853,12.313C1298.235,229.819,1296.697,233.976,1295.201,238.148z"/>
			<path fill="#10A88D" d="M1378.188,260.611c-3.047-4.759-6.165-9.573-9.346-14.44c-3.181-4.867-6.35-9.681-9.506-14.441
				c-3.157-4.759-6.285-9.386-9.386-13.879v42.761h-9.787v-57.36h10.268c4.814,6.952,9.561,13.958,14.241,21.019
				c4.678,7.059,9.346,14.227,13.999,21.5v-42.519h9.787v57.36H1378.188z"/>
			<path fill="#10A88D" d="M1400.171,260.611v-57.36h20.938c5.989,0,11.111,1.123,15.363,3.368c4.253,2.247,7.515,5.496,9.789,9.748
				c2.272,4.251,3.409,9.4,3.409,15.443c0,6.097-1.137,11.286-3.409,15.563c-2.274,4.28-5.536,7.556-9.789,9.828
				c-4.251,2.274-9.4,3.409-15.443,3.409H1400.171z M1410.359,211.914v40.032h10.108c5.989,0,10.59-1.712,13.798-5.135
				c3.209-3.422,4.814-8.424,4.814-15.002c0-6.471-1.578-11.405-4.733-14.802c-3.157-3.396-7.755-5.094-13.798-5.094H1410.359z"/>
		</g>
	</g>
</g>
</svg>
