<?xml version="1.0" encoding="UTF-8" standalone="no"?>
<svg
   xmlns:dc="http://purl.org/dc/elements/1.1/"
   xmlns:cc="http://creativecommons.org/ns#"
   xmlns:rdf="http://www.w3.org/1999/02/22-rdf-syntax-ns#"
   xmlns:svg="http://www.w3.org/2000/svg"
   xmlns="http://www.w3.org/2000/svg"
   viewBox="0 0 745.32001 227.85333"
   height="227.85333"
   width="745.32001"
   xml:space="preserve"
   id="svg2"
   version="1.1"><metadata
     id="metadata8"><rdf:RDF><cc:Work
         rdf:about=""><dc:format>image/svg+xml</dc:format><dc:type
           rdf:resource="http://purl.org/dc/dcmitype/StillImage" /></cc:Work></rdf:RDF></metadata><defs
     id="defs6" /><g
     transform="matrix(1.3333333,0,0,-1.3333333,0,227.85333)"
     id="g10"><g
       transform="scale(0.1)"
       id="g12"><path
         id="path14"
         style="fill:#1478c7;fill-opacity:1;fill-rule:nonzero;stroke:none"
         d="M 5589.93,0 H 0 V 1708.89 H 5589.93 V 0" /><path
         id="path16"
         style="fill:#ffffff;fill-opacity:1;fill-rule:nonzero;stroke:none"
         d="m 2096.11,618.379 c -129.89,0 -239.04,92.711 -258.68,224.055 h 245.69 c 27.06,0 86.32,-5.829 86.32,-5.829 v 108.86 c 0,0 -58.08,-4.383 -90.41,-4.383 h -241.6 c 24.39,128.698 130.18,217.578 258.68,217.578 67.76,0 151.07,-30.96 151.07,-30.96 l 1.45,114.45 c 0,0 -59.1,22.36 -152.52,22.36 -216.29,0 -405.26,-165.04 -405.26,-375.405 0,-227.523 188.97,-381.335 405.26,-381.335 101.56,0 162.21,27.218 162.21,27.218 l -2.74,118.274 c 0,0 -75.08,-34.883 -159.47,-34.883" /><path
         id="path18"
         style="fill:#ffffff;fill-opacity:1;fill-rule:nonzero;stroke:none"
         d="m 1360.56,510.68 c 0,0 8.23,54.91 8.23,102.961 V 1136 h -35.45 c -48.04,0 -122.48,0 -177.47,-5.48 l -4.75,121.31 h 573.51 l -2.83,-121.31 c -56.62,5.48 -129.88,5.48 -179.19,5.48 h -43.67 V 613.641 c 0,-48.051 9.6,-102.961 9.6,-102.961 h -147.98" /><path
         id="path20"
         style="fill:#ffffff;fill-opacity:1;fill-rule:nonzero;stroke:none"
         d="m 2249.73,1312.29 c -42.19,11.95 -97.36,20.1 -143.58,20.1 -126.05,0 -234.46,-38.21 -324.97,-118.83 l 1.36,89.12 c 96,65.34 204.68,94.66 323.61,94.66 51.98,0 97.19,-7.12 145.05,-19.55 l -1.47,-65.5" /><path
         id="path22"
         style="fill:#ffffff;fill-opacity:1;fill-rule:nonzero;stroke:none"
         d="m 1103.63,612.172 -199.11,192.09 c 122.57,11.699 225.69,101.937 225.69,219.008 0,124.53 -71.87,234.66 -285.784,243.53 -8.863,0.27 -18.098,0.65 -27.785,0.65 -147.95,0 -249.61,-7.12 -249.61,-7.12 0,0 6.754,-73 6.754,-109.88 V 612.172 c 0,-49.434 -9.68,-101.492 -9.68,-101.492 h 149.524 c 0,0 -9.508,52.058 -9.508,111.34 V 840.969 L 844.426,693.91 915.469,620.449 C 959.316,572.621 1035.67,510.68 1035.67,510.68 h 197.47 c 0,0 -88.39,61.941 -129.51,101.492 M 810.984,892.016 H 704.121 v 269.574 c 0,0 51.875,1.34 113.988,1.34 9.231,0 18.278,-0.8 26.317,-1.18 99.551,-8.12 140.64,-62.28 140.64,-127.49 0,-73.088 -57.808,-128.451 -140.64,-140.33 -10.598,-1.446 -22.02,-1.914 -33.442,-1.914" /><path
         id="path24"
         style="fill:#ffffff;fill-opacity:1;fill-rule:nonzero;stroke:none"
         d="m 2638.28,783.969 c 5.85,-147.149 104.77,-228.547 240.31,-228.547 122.67,0 199.04,54.18 199.04,146.066 0,75.45 -44.77,115.547 -151.81,136.633 l -150.91,29.52 c -106.03,21.281 -179.09,77.714 -179.09,189.709 0,122.48 97.82,210.83 254.55,210.83 180.13,0 287.33,-98.93 287.33,-266.28 l -68.21,-5.943 c -2.38,135.583 -82.48,214.473 -218.02,214.473 -117.74,0 -183.77,-57.72 -183.77,-150.81 0,-83.659 52.96,-110.593 150.79,-129.593 l 131.89,-25.843 c 130.89,-25.938 197.92,-78.934 197.92,-196.743 0,-130.812 -112.87,-209.82 -269.71,-209.82 -176.74,0 -307.53,100.277 -307.53,280.422 l 67.22,5.926" /><path
         id="path26"
         style="fill:#ffffff;fill-opacity:1;fill-rule:nonzero;stroke:none"
         d="m 3309.97,311.68 h -71.95 v 711.52 h 71.95 V 910.121 c 22.3,64.75 89.51,127.229 188.54,127.229 151.78,0 236.72,-119.108 236.72,-269.827 0,-150.793 -84.94,-269.824 -236.72,-269.824 -99.03,0 -166.24,61.313 -188.54,126.063 z m -2.35,438.121 c 0,-122.551 79.98,-193.102 181.36,-193.102 108.34,0 170.83,81.192 170.83,210.824 0,129.629 -62.49,210.836 -170.83,210.836 -101.38,0 -181.36,-70.636 -181.36,-193.101 v -35.457" /><path
         id="path28"
         style="fill:#ffffff;fill-opacity:1;fill-rule:nonzero;stroke:none"
         d="m 4042.7,497.699 c -144.87,0 -255.56,110.832 -255.56,269.824 0,159.016 110.69,269.827 255.56,269.827 146.12,0 256.81,-110.811 256.81,-269.827 0,-158.992 -110.69,-269.824 -256.81,-269.824 m 0,56.543 c 115.43,0 181.39,88.539 181.39,213.281 0,124.872 -65.96,213.286 -181.39,213.286 -114.18,0 -180.14,-88.414 -180.14,-213.286 0,-124.742 65.96,-213.281 180.14,-213.281" /><path
         id="path30"
         style="fill:#ffffff;fill-opacity:1;fill-rule:nonzero;stroke:none"
         d="m 4666.16,951.293 c -29.61,15.277 -47.15,20 -77.83,20 -74.17,0 -134.25,-76.523 -134.25,-179.016 V 511.859 h -71.8 v 511.251 h 71.8 V 915.969 c 20.09,58.902 71.96,121.381 147.2,121.381 31.82,0 54.27,-7.21 73.09,-23.58 l -8.21,-62.477" /><path
         id="path32"
         style="fill:#ffffff;fill-opacity:1;fill-rule:nonzero;stroke:none"
         d="m 4788.93,970.109 h -78.95 v 35.371 l 30.53,5.93 c 47.31,9.39 56.62,31.79 67.21,81.2 l 15.35,73.16 h 36.53 V 1023.2 h 148.5 V 970.109 H 4859.6 V 623.762 c 0,-45.942 18.8,-68.34 65.96,-68.34 35.43,0 70.69,17.726 100.28,35.367 v -50.687 c -36.72,-28.243 -73.07,-42.403 -124.96,-42.403 -68.29,0 -111.95,34.199 -111.95,127.242 v 345.168" /></g></g></svg>