<?xml version="1.0" encoding="utf-8"?>
<!-- Generator: Adobe Illustrator 21.0.2, SVG Export Plug-In . SVG Version: 6.00 Build 0)  -->
<svg version="1.1" id="Layer_2" xmlns="http://www.w3.org/2000/svg" xmlns:xlink="http://www.w3.org/1999/xlink" x="0px" y="0px"
	 width="281.1px" height="117.8px" viewBox="0 0 281.1 117.8" style="enable-background:new 0 0 281.1 117.8;" xml:space="preserve"
	>
<style type="text/css">
	.st0{fill:#FFFFFF;}
	.st1{fill:#ADAEB0;}
</style>
<path class="st0" d="M0.3,32.5c3.3,0,3.8-0.7,3.8-4.6v-13c0-4-0.5-4.6-3.8-4.6V9.5H11v0.8c-3.3,0-3.8,0.6-3.8,4.6v12.3
	c0,4,0.5,4.6,3.8,4.6h4.8c3.6,0,4.1-0.9,4.6-3l0.2-0.8h0.8l-0.3,5.3H0.3"/>
<path class="st0" d="M22.3,32.5c3.3,0,3.8-0.7,3.8-4.6v-13c0-4-0.5-4.6-3.8-4.6V9.5h18.1l0.4,5.2H40l-0.2-0.8c-0.6-2.1-1-3-4.6-3
	h-5.9v9h2c4,0,4.6-0.5,4.6-3.8h0.8v9.1h-0.8c0-3.3-0.6-3.8-4.6-3.8h-2v5.8c0,4,0.5,4.6,3.8,4.6h3.4c3.7,0,4.1-0.9,4.6-3l0.2-0.8h0.8
	l-0.3,5.3H22.3"/>
<path class="st0" d="M72.2,16.2c0,3.7-3,6.7-8.5,6.7h-3.5v5c0,4,0.5,4.6,3.8,4.6v0.8H53.2v-0.8c3.3,0,3.8-0.7,3.8-4.6v-13
	c0-4-0.5-4.6-3.8-4.6V9.5h10.5C69.2,9.5,72.2,12.5,72.2,16.2 M68.7,16.2c0-2.9-1.6-5.2-5-5.2h-3.5v10.5h3.5
	C67.1,21.4,68.7,19.1,68.7,16.2z"/>
<path class="st0" d="M73.8,32.5c3.3,0,3.8-0.7,3.8-4.6v-13c0-4-0.5-4.6-3.8-4.6V9.5h10.7v0.8c-3.3,0-3.8,0.6-3.8,4.6v12.3
	c0,4,0.5,4.6,3.8,4.6h4.8c3.6,0,4.1-0.9,4.6-3l0.2-0.8h0.8l-0.3,5.3H73.8"/>
<path class="st0" d="M111,10.3V9.5h9.3v0.8c-3.3,0-3.8,0.6-3.8,4.6v9.5c0,6.2-4.3,9.5-9.6,9.5c-5.2,0-9.5-3.3-9.5-9.5v-9.5
	c0-4-0.5-4.6-3.8-4.6V9.5h10.7v0.8c-3.3,0-3.8,0.6-3.8,4.6v9.7c0,5.2,3,7.5,7,7.5c4.2,0,7.3-2.4,7.3-7.5v-9.7
	C114.8,10.9,114.3,10.3,111,10.3"/>
<path class="st0" d="M123.4,34h-0.8v-8.7h0.8c0,0,0.1,7.2,7.3,7.2c2.8,0,5-1.8,5-4.4c0-1.8-1.8-3.4-4.6-4.8l-3.8-1.9
	c-2.3-1.2-4.4-3.5-4.4-6.6c0-3.3,2.7-5.9,6.6-5.9c2.3,0,3.7,0.8,4.8,1.6c0.5-0.4,1-1,1.2-1.8h0.8v8.7h-0.8c-0.3-3.2-1.5-7-6.1-7
	c-2.2,0-3.9,1.5-3.9,3.5c0,2.1,1.4,3.1,4.8,4.9l3.8,1.9c3.1,1.5,4.1,3.9,4.1,6c0,4.3-3.5,7.2-7.6,7.2c-3,0-4.9-1.6-6.2-1.9
	C124.1,32.5,123.6,33.1,123.4,34"/>
<path class="st0" d="M166.5,24.2v-0.8h10.4v0.8c-3.3,0-3.8,0.7-3.8,4.6v3c-4.4,0-6.2,2.1-10.3,2.1c-6.7,0-12.2-5.7-12.2-12.6
	s5.5-12.6,12.2-12.6c2.8,0,5.4,1.2,7.4,3.4c0.5-0.4,1.2-1.3,1.4-2.3h0.8v8.7h-0.8c-1.1-5.2-4.2-8.3-8.6-8.3c-6.4,0-8.7,6.1-8.7,11
	s2.1,10.9,9.4,10.9c3.5,0,6.6-1.9,6.6-5.4C170.3,25.1,169.3,24.2,166.5,24.2"/>
<path class="st0" d="M193.2,27.4c2.3,2.8,5,4.8,7.4,5v0.8H194l-7.9-10.4h-1.9v5c0,4,0.5,4.6,3.8,4.6v0.8h-10.7v-0.8
	c3.3,0,3.8-0.7,3.8-4.6V14.9c0-4-0.5-4.6-3.8-4.6V9.5h10.5c5.5,0,8.5,3,8.5,6.7c0,3.5-2.6,6.2-7.1,6.7 M192.8,16.2
	c0-2.9-1.6-5.2-5-5.2h-3.5v10.5h3.5C191.2,21.4,192.8,19.1,192.8,16.2z"/>
<path class="st0" d="M207.3,29.4c-1,2.1-0.2,3,3.1,3v0.8h-9.3v-0.8c3.3,0,3.5-0.7,4.8-3.5l8.7-20.2h0.5l8.8,20.2
	c1.2,2.8,1.4,3.5,4.7,3.5v0.8h-11v-0.8c3.3,0,4.1-0.8,3.1-3l-1.9-4.4h-9.6 M214,14l-4.1,9.6h8.3L214,14z"/>
<path class="st0" d="M250.7,14.9c0-4-0.5-4.6-3.8-4.6V9.5h9.1v0.8c-3.3,0-3.8,0.6-3.8,4.6V34h-0.9l-16.2-20v13.8
	c0,4,0.5,4.6,3.8,4.6v0.8h-9.1v-0.8c3.3,0,3.8-0.7,3.8-4.6V14.9c0-4-0.5-4.6-3.8-4.6V9.5h5.6l15.3,18.9"/>
<path class="st0" d="M256.9,32.5c3.3,0,3.8-0.7,3.8-4.6v-13c0-4-0.5-4.6-3.8-4.6V9.5h10.8c9.3,0,13.3,5.4,13.3,11.9
	c0,6.6-4,11.9-13.3,11.9h-10.8 M263.8,27.2c0,4,0.4,4.6,3.7,4.6h0.2c7.7,0,9.4-5.8,9.4-10.4S275.4,11,267.7,11c-0.5,0-3.9,0-3.9,0
	L263.8,27.2L263.8,27.2z"/>
<path class="st1" d="M38.9,54.2h-1.3L37.3,53c-0.9-3.3-1.5-4.7-7.2-4.7H22v26.1c0,6.2,0.8,7.2,5.9,7.2v1.3H11.3v-1.3
	c5.1,0,5.9-1,5.9-7.2V48.3H9.1c-5.7,0-6.3,1.4-7.2,4.7l-0.3,1.2H0.3l0.6-8.3h37.5"/>
<path class="st1" d="M63,84c-11.3,0-20.6-8.8-20.6-19.6c0-10.7,9.3-19.6,20.6-19.6c11.4,0,20.6,8.8,20.6,19.6
	C83.6,75.1,74.4,84,63,84 M48.3,64.4c0,7.7,4.1,17.1,14.7,17.1c10.7,0,14.8-9.4,14.8-17.1S73.7,47.2,63,47.2
	C52.4,47.2,48.3,56.8,48.3,64.4z"/>
<path class="st1" d="M111.9,47.2v-1.3h14.4v1.3c-5.1,0-5.9,1-5.9,7.2v14.8c0,9.7-6.7,14.8-14.9,14.8c-8.1,0-14.8-5.1-14.8-14.8V54.3
	c0-6.2-0.7-7.2-5.9-7.2v-1.3h16.7v1.3c-5.1,0-5.9,1-5.9,7.2v15.1c0,8,4.6,11.7,10.8,11.7c6.5,0,11.4-3.7,11.4-11.7V54.3
	C117.8,48.2,117,47.2,111.9,47.2"/>
<path class="st1" d="M155.6,73.8c3.6,4.3,7.8,7.4,11.5,7.8v1.3h-10.2l-12.2-16.2h-2.9v7.7c0,6.2,0.7,7.2,5.9,7.2v1.3H131v-1.3
	c5.1,0,5.9-1,5.9-7.2V54.3c0-6.2-0.7-7.2-5.9-7.2v-1.3h16.3c8.6,0,13.3,4.7,13.3,10.4c0,5.4-4,9.6-11,10.4 M155.1,56.3
	c0-4.4-2.5-8.1-7.8-8.1h-5.4v16.3h5.4C152.6,64.5,155.1,60.8,155.1,56.3z"/>
<path class="st1" d="M204.7,54.3c0-6.2-0.7-7.2-5.9-7.2v-1.3h14.1v1.3c-5.1,0-5.9,1-5.9,7.2V84h-1.4l-25.1-31.1v21.5
	c0,6.2,0.8,7.2,5.9,7.2v1.3h-14.1v-1.3c5.1,0,5.9-1,5.9-7.2V54.3c0-6.2-0.7-7.2-5.9-7.2v-1.3h8.7l23.7,29.4"/>
<path class="st1" d="M236.2,84c-11.3,0-20.6-8.8-20.6-19.6c0-10.7,9.3-19.6,20.6-19.6c11.4,0,20.6,8.8,20.6,19.6
	C256.8,75.1,247.6,84,236.2,84 M221.5,64.4c0,7.7,4.1,17.1,14.7,17.1c10.7,0,14.8-9.4,14.8-17.1s-4.1-17.2-14.8-17.2
	C225.6,47.2,221.5,56.8,221.5,64.4z"/>
<path class="st1" d="M263.5,82.9v-1.3c5.1,0,5.9-1,5.9-7.2V54.3c0-6.2-0.7-7.2-5.9-7.2v-1.3h16.7v1.3c-5.1,0-5.9,1-5.9,7.2v20.1
	c0,6.2,0.7,7.2,5.9,7.2v1.3"/>
<path class="st0" d="M85.3,108.3c2,0,2.3-0.4,2.3-2.9v-8c0-2.5-0.3-2.8-2.3-2.8v-0.5h6.6c5.7,0,8.2,3.3,8.2,7.4c0,4-2.5,7.4-8.2,7.4
	h-6.6 M89.5,105.1c0,2.5,0.3,2.8,2.3,2.8h0.1c4.8,0,5.8-3.6,5.8-6.4c0-2.9-1-6.4-5.8-6.4c-0.3,0-2.4,0-2.4,0V105.1z"/>
<path class="st0" d="M101.7,108.3c2,0,2.3-0.4,2.3-2.9v-8c0-2.5-0.3-2.8-2.3-2.8v-0.5h11.2l0.2,3.2h-0.5l-0.1-0.5
	c-0.3-1.3-0.6-1.8-2.8-1.8H106v5.6h1.2c2.5,0,2.8-0.3,2.8-2.4h0.5v5.6H110c0-2.1-0.4-2.4-2.8-2.4H106v3.6c0,2.5,0.3,2.8,2.3,2.8h2.1
	c2.3,0,2.5-0.6,2.8-1.9l0.1-0.5h0.5l-0.2,3.3h-12"/>
<path class="st0" d="M131.5,105.2c1.4,1.7,3.1,2.9,4.6,3.1v0.5h-4l-4.9-6.4H126v3.1c0,2.5,0.3,2.9,2.3,2.9v0.5h-6.6v-0.5
	c2,0,2.3-0.4,2.3-2.9v-8c0-2.5-0.3-2.8-2.3-2.8v-0.5h6.5c3.4,0,5.3,1.9,5.3,4.1c0,2.1-1.6,3.8-4.4,4.1 M131.3,98.2
	c0-1.8-1-3.2-3.1-3.2H126v6.5h2.2C130.3,101.5,131.3,100,131.3,98.2z"/>
<path class="st0" d="M146.7,94.6v-0.5h5.7v0.5c-2,0-2.4,0.4-2.4,2.8v5.9c0,3.8-2.6,5.9-5.9,5.9c-3.2,0-5.9-2-5.9-5.9v-5.9
	c0-2.5-0.3-2.8-2.3-2.8v-0.5h6.6v0.5c-2,0-2.3,0.4-2.3,2.8v6c0,3.2,1.8,4.7,4.3,4.7c2.6,0,4.5-1.5,4.5-4.7v-6
	C149,95,148.7,94.6,146.7,94.6"/>
<path class="st0" d="M162.7,103.2v-0.5h6.4v0.5c-2,0-2.3,0.4-2.3,2.9v1.9c-2.7,0-3.8,1.3-6.4,1.3c-4.1,0-7.5-3.5-7.5-7.8
	s3.4-7.8,7.5-7.8c1.7,0,3.3,0.8,4.6,2.1c0.3-0.2,0.7-0.8,0.8-1.4h0.5v5.4h-0.5c-0.7-3.2-2.6-5.1-5.3-5.1c-3.9,0-5.3,3.8-5.3,6.8
	s1.3,6.7,5.8,6.7c2.1,0,4-1.2,4-3.4C165,103.8,164.4,103.2,162.7,103.2"/>
<path class="st0" d="M182.4,104.7c0,2.3-1.9,4.1-5.3,4.1h-7.3v-0.5c2,0,2.3-0.4,2.3-2.9v-8c0-2.5-0.3-2.8-2.3-2.8v-0.5h6.6
	c3.1,0,4.7,1.6,4.7,3.7c0,1.3-0.8,2.4-1.9,3C181.1,101.4,182.4,102.9,182.4,104.7 M174.1,100.5h2.2c1.8,0,2.7-1.2,2.7-2.7
	s-0.9-2.8-2.7-2.8h-2.2V100.5z M180.2,104.7c0-1.8-1-3.3-3.1-3.3h-3v3.6c0,2.5,0.3,2.8,2.3,2.8h0.6
	C179.2,107.9,180.2,106.4,180.2,104.7z"/>
<path class="st0" d="M191.5,105.4c0,2.5,0.3,2.9,2.3,2.9v0.5h-6.6v-0.5c2,0,2.3-0.4,2.3-2.9V103l-4.1-6.3c-1.1-1.6-1.8-2.1-3.6-2.1
	v-0.5h7v0.5c-2.1,0-2.1,0.7-1.3,1.9l3.5,5.4l3.6-5.4c0.9-1.3,0.7-1.9-1.3-1.9v-0.5h5.7v0.5c-2.1,0-2.6,0.7-3.6,2.1l-4,6.1"/>
<polyline class="st0" points="75.3,102.1 0.2,102.1 0.2,101.6 75.3,101.6 "/>
<polyline class="st0" points="280.4,102.1 205.3,102.1 205.3,101.6 280.4,101.6 "/>
</svg>
