<svg id="a81ef5f0-5f0e-4b92-97e5-9cc79ea306ee" data-name="svg2" xmlns="http://www.w3.org/2000/svg" width="1000" height="150.42" viewBox="0 0 1000 150.42"><title>s4c</title><g id="f108e0e8-acd8-4257-b019-d2836de7afdf" data-name="layer1"><path id="b8f35c68-9e04-4cfa-b67b-f72dea07cd34" data-name="path3027" d="M0,150.42V0H1000V150.42Z" style="fill:#118e9b"/><g id="a5c5b31d-a1b0-401d-8d81-d9693762ab4f" data-name="g3022"><path id="fee7ae10-772c-40d5-90ef-75219f77e39d" data-name="path2998" d="M401.74,101.59l-8.23,13.3s12.26,8.39,27.12,8.39c17.45,0,30.71-12,30.71-27.21,0-31.12-37.16-25.2-37.16-41.89,0-8.32,6-12.13,13.53-12.13,9,0,16.16,6.76,16.16,6.76L451.49,34A49.47,49.47,0,0,0,426,26.5c-16.71,0-30.86,10.67-30.86,29.15,0,29.26,37.55,23.87,37.55,41,0,7.33-5.27,11.35-14.07,11.35S401.74,101.59,401.74,101.59Z" style="fill:#fff"/><path id="a7ce45ca-7431-4a52-a1a4-d5e1c6c56a1a" data-name="path3000" d="M514.79,30l-17.26.11L455.74,87.8l4.68,13.55h36.95V120.5h17.41V101.35h7.84V85.68h-7.84V30ZM497.37,53v32.7H475.06Z" style="fill:#fff"/><path id="b4eaef76-62e0-4d24-9f1e-7a5039ac80b7" data-name="path3002" d="M597.94,100.74,606.18,114c-7.66,5.84-16.26,8.87-30.54,8.87-27.12,0-47-17.81-47-47.35,0-30.3,19.15-48.66,46.48-48.66,20.09,0,31.41,11.12,31.41,11.12l-8.87,13.21a34.87,34.87,0,0,0-21.92-7.92c-11.55,0-28.37,7.87-28.37,31.56,0,17.73,11.91,32,29.62,32,14.45,0,21-6.06,21-6.06Z" style="fill:#fff"/></g></g></svg>