<svg id="PRIMARY" xmlns="http://www.w3.org/2000/svg" xmlns:xlink="http://www.w3.org/1999/xlink" viewBox="0 0 507.5545 120">
  <defs>
    <linearGradient id="Plinth2_GRAD_RGB" x1="349.6068" x2="349.6068" y2="120" gradientUnits="userSpaceOnUse">
      <stop offset="0.4" stop-color="red"/>
      <stop offset="1" stop-color="#d42321"/>
    </linearGradient>
    <linearGradient id="Plinth2_HL_GRAD_RGB" x1="350.2808" y1="56.1048" x2="348.1939" y2="-3.6561" gradientUnits="userSpaceOnUse">
      <stop offset="0" stop-color="#fff"/>
      <stop offset="0.1203" stop-color="#fff" stop-opacity="0.8347"/>
      <stop offset="0.2693" stop-color="#fff" stop-opacity="0.6576"/>
      <stop offset="0.4195" stop-color="#fff" stop-opacity="0.5107"/>
      <stop offset="0.5684" stop-color="#fff" stop-opacity="0.3965"/>
      <stop offset="0.7156" stop-color="#fff" stop-opacity="0.3152"/>
      <stop offset="0.8603" stop-color="#fff" stop-opacity="0.2664"/>
      <stop offset="1" stop-color="#fff" stop-opacity="0.25"/>
    </linearGradient>
    <linearGradient id="Logo2_GRAD_RGB" x1="86.85" y1="6.925" x2="86.85" y2="113.075" gradientUnits="userSpaceOnUse">
      <stop offset="0" stop-color="#002a91"/>
      <stop offset="0.8" stop-color="#002672"/>
    </linearGradient>
    <linearGradient id="Logo2_HL_GRAD_RGB" x1="87.6831" y1="63.1671" x2="86.2795" y2="22.976" xlink:href="#Plinth2_HL_GRAD_RGB"/>
  </defs>
  <rect id="Plinth" x="191.6591" width="315.8953" height="120" rx="8" fill="url(#Plinth2_GRAD_RGB)"/>
  <path id="p40" d="M197.4177,59.5381c.0054-.0005.2611-.0225.7567-.04,23.6611-.8408,303.4027-10.5937,303.4027-10.5937a6.0314,6.0314,0,0,0,5.9739-6.0769L507.5545,8a8,8,0,0,0-8-8H199.6592a8,8,0,0,0-8,8V65.7554A6.0731,6.0731,0,0,1,197.4177,59.5381Z" opacity="0.4" fill="url(#Plinth2_HL_GRAD_RGB)"/>
  <path id="Sky_Logo" d="M119.89,111.3672a19.8728,19.8728,0,0,0,7.9771,1.7022c6.2714.1375,9.6841-2.2552,12.22-7.8719L173.7,30.3553a18.4591,18.4591,0,0,0-6.9627-1.612c-4.3337-.0911-10.1437.7836-13.8324,9.6212L142.0237,64.0012l-21.349-34.7054a31.256,31.256,0,0,0-7.1939-1.0122c-7.5615,0-11.7574,2.7615-16.1383,7.5017L76.5944,58.4335,93.2849,84.6693c3.09,4.7863,7.1471,7.2256,13.7423,7.2256a24.5063,24.5063,0,0,0,9.5893-1.7935L96.5126,59.8587l14.2481-15.0958,23.3774,36.6386Zm-44.1011-28.31c0,5.5235-2.1685,8.7-12.9577,8.7a25.3582,25.3582,0,0,1-3.8725-.275V18.296c0-5.57,1.89-11.371,12.7713-11.371a19.5068,19.5068,0,0,1,4.0589.4152ZM53.5335,72.0106c0,10.31-6.7325,17.8133-20.4269,19.2876-9.9132,1.0588-24.2538-.1846-31.078-.9679a19.0756,19.0756,0,0,1-.4143-3.59c0-8.9759,4.8412-11.0469,9.4058-11.0469,4.75,0,12.22.828,17.7528.828,6.1316,0,7.9764-2.071,7.9764-4.0492,0-2.5792-2.444-3.6366-7.1927-4.5584L16.5532,65.4284C5.763,63.3574,0,55.9,0,47.9843c0-9.62,6.8244-17.6758,20.2421-19.1477,10.1435-1.1057,22.5012.1373,29.28.9658a17.2138,17.2138,0,0,1,.3685,3.4522c0,8.9749-4.7492,10.9089-9.314,10.9089-3.5045,0-8.9451-.6444-15.17-.6444-6.3173,0-8.9456,1.75-8.9456,3.8658,0,2.2554,2.49,3.1762,6.4553,3.867L35.32,53.5536C48.0459,55.9,53.5335,63.128,53.5335,72.0106Z" fill="url(#Logo2_GRAD_RGB)"/>
  <path id="s25" d="M173.7,30.3553l-12.3051,27.398a5.7171,5.7171,0,0,1-5.1276,3.2079l-11.2422.3926a3.1582,3.1582,0,0,0-2.7426,2.04l.0047-.0131,10.6176-25.016c3.6888-8.8376,9.4988-9.7123,13.8325-9.6212A18.4591,18.4591,0,0,1,173.7,30.3553Zm-32.2333,32.74-20.792-33.8a31.256,31.256,0,0,0-7.1939-1.0122c-7.5615,0-11.7574,2.7615-16.1383,7.5016L76.5944,58.4335l1.6568,2.6043a5.5344,5.5344,0,0,0,4.9082,2.4762c.9857-.0343,11.0094-.3839,11.8281-.414a5.9545,5.9545,0,0,1,5.2394,2.3463l-.0027-.0042-3.7116-5.5834,14.2481-15.0958,9.5716,15.0011,0,0a6.05,6.05,0,0,0,4.894,2.2811c.5015-.017,13.0425-.4555,13.6-.475A3.2109,3.2109,0,0,1,141.4667,63.0958ZM71.73,6.925c-10.8814,0-12.7713,5.8009-12.7713,11.371V68.454a4.2545,4.2545,0,0,1,4.1445-4.2393l8.4242-.2942a4.269,4.269,0,0,0,4.2615-4.28V7.34A19.5068,19.5068,0,0,0,71.73,6.925ZM35.32,53.5536,22.9162,51.2518c-3.9655-.6907-6.4553-1.6115-6.4553-3.8669,0-2.1162,2.6283-3.8658,8.9455-3.8658,6.2248,0,11.6654.6444,15.17.6444,4.5649,0,9.314-1.934,9.314-10.9089a17.22,17.22,0,0,0-.3684-3.4522c-6.7786-.8285-19.1363-2.0715-29.28-.9658C6.8244,30.3085,0,38.3645,0,47.9843A16.5361,16.5361,0,0,0,6.5568,61.0714a25.0128,25.0128,0,0,0,9.9572,3.5575A84.9879,84.9879,0,0,0,30.39,65.357c1.4707-.0537,12.42-.4366,14.7978-.5167,5.55-.1871,8.5566,4.547,8.2474,9.29.0061-.0643.01-.1254.0158-.19l.005-.0557q.0769-.9205.0779-1.8742C53.5334,63.128,48.046,55.9,35.32,53.5536Z" opacity="0.25" fill="url(#Logo2_HL_GRAD_RGB)"/>
  <g>
    <path d="M214.6763,86.22c-.7071-4.9472.8242-7.539,3.6513-7.539,2.71,0,9.3067,2.9453,18.4942,2.9453,9.66,0,13.3115-3.416,13.3115-7.8926,0-3.1807-1.4131-6.0078-10.1309-8.3633L229.99,62.66c-11.0732-2.9444-15.4316-8.4815-15.4316-15.3135,0-8.4815,6.7148-16.02,21.91-16.02a64.256,64.256,0,0,1,20.497,3.5342c.9424,4.8291-.5888,7.4209-3.5341,7.4209-2.5909,0-8.48-2.4737-16.8448-2.4737-8.9521,0-12.251,3.0625-12.251,7.0674,0,2.8281,1.2959,5.4189,9.3067,7.6572l10.248,2.8272c11.4258,3.1806,16.02,8.4814,16.02,16.0205,0,8.8349-6.832,16.7275-23.3242,16.7275A69.1834,69.1834,0,0,1,214.6763,86.22Z" fill="#fff"/>
    <path d="M327.7739,60.6582c0,18.4941-12.958,29.4492-27.2119,29.4492a23.9181,23.9181,0,0,1-19.5547-9.6592v23.795c0,2.2382-1.2949,3.6513-5.0644,3.6513a21.1262,21.1262,0,0,1-4.5948-.4707V32.3867a21.0581,21.0581,0,0,1,4.5948-.4717c3.7695,0,5.0644,1.4141,5.0644,3.6514v5.419a23.9181,23.9181,0,0,1,19.5547-9.6592C314.8159,31.3262,327.7739,42.2813,327.7739,60.6582Zm-9.7773,0c0-12.3691-8.2461-20.8506-19.3194-20.8506a19.9324,19.9324,0,0,0-17.67,10.72v20.379a19.9324,19.9324,0,0,0,17.67,10.72C309.7505,81.626,317.9966,73.1445,317.9966,60.6582Z" fill="#fff"/>
    <path d="M336.82,60.6582c0-16.8457,12.3692-29.332,28.9785-29.332,16.7276,0,29.0957,12.4863,29.0957,29.332,0,16.7266-12.3681,29.4492-29.0957,29.4492C349.189,90.1074,336.82,77.3848,336.82,60.6582Zm48.2979,0c0-12.958-8.7178-20.8506-19.3194-20.8506-10.4843,0-19.2011,7.8926-19.2011,20.8506,0,12.84,8.7168,20.9678,19.2011,20.9678C376.4,81.626,385.1177,73.498,385.1177,60.6582Z" fill="#fff"/>
    <path d="M441.6021,36.627c0,3.8876-1.6485,4.7119-5.6543,4.7119-8.128,0-14.96,3.77-19.2,12.6045V85.8662c0,2.3565-1.2959,3.6524-5.1836,3.6524a21.6323,21.6323,0,0,1-4.4766-.4717v-56.66a21.6323,21.6323,0,0,1,4.4766-.4717c3.8877,0,5.1836,1.4141,5.1836,3.6514V43.459c5.5361-8.3633,13.8994-12.6035,24.3837-11.19A28.5974,28.5974,0,0,1,441.6021,36.627Z" fill="#fff"/>
    <path d="M483.9634,86.22a38.3787,38.3787,0,0,1-16.2569,3.8877c-11.19,0-17.9052-6.5967-17.9052-17.5517v-48.65c0-2.4737,1.414-4.1231,5.1836-4.1231a20.6737,20.6737,0,0,1,4.4765.5889v12.251H481.49a29.5444,29.5444,0,0,1,.3526,3.8877c0,3.416-1.4131,4.5937-3.5332,4.5937H459.4614V71.8486c0,6.5967,3.0625,9.7774,9.3057,9.7774,5.6543,0,8.835-2.4737,11.5439-2.4737C483.1382,79.1523,484.5522,81.5078,483.9634,86.22Z" fill="#fff"/>
  </g>
</svg>
