<svg xmlns="http://www.w3.org/2000/svg" width="380.925" height="85.039" viewBox="0 0 380.925 85.039">
  <g id="Group_5" data-name="Group 5" transform="translate(-21.002 -347.482)">
    <g id="Group_2" data-name="Group 2">
      <path id="Path_6" data-name="Path 6" d="M139.948,360.761a15.213,15.213,0,0,0-10.74-10.74c-9.474-2.539-47.464-2.539-47.464-2.539s-37.989,0-47.463,2.539a15.213,15.213,0,0,0-10.74,10.74C21,370.235,21,390,21,390s0,19.766,2.539,29.24a15.214,15.214,0,0,0,10.74,10.741c9.474,2.538,47.463,2.538,47.463,2.538s37.99,0,47.464-2.538a15.214,15.214,0,0,0,10.74-10.741c2.539-9.474,2.539-29.24,2.539-29.24S142.487,370.235,139.948,360.761Z" fill="red"/>
      <path id="Path_7" data-name="Path 7" d="M69.6,408.225,101.157,390,69.6,371.779Z" fill="#fff"/>
    </g>
    <g id="Group_4" data-name="Group 4">
      <g id="Group_3" data-name="Group 3">
        <path id="Path_8" data-name="Path 8" d="M197.338,424.846a13.234,13.234,0,0,1-5.126-7.558,49.471,49.471,0,0,1-1.52-13.64v-7.732a44.817,44.817,0,0,1,1.737-13.813,13.853,13.853,0,0,1,5.43-7.6,17.583,17.583,0,0,1,9.686-2.389q5.908,0,9.47,2.432a13.948,13.948,0,0,1,5.213,7.6,46.66,46.66,0,0,1,1.65,13.77v7.732a47.42,47.42,0,0,1-1.607,13.683,13.43,13.43,0,0,1-5.213,7.558q-3.606,2.388-9.773,2.389Q200.941,427.278,197.338,424.846Zm13.466-8.34q1-2.607,1-8.514V391.4a25.682,25.682,0,0,0-1-8.383,3.577,3.577,0,0,0-3.519-2.65,3.525,3.525,0,0,0-3.432,2.65,25.648,25.648,0,0,0-1,8.383v16.594q0,5.908.956,8.514a3.494,3.494,0,0,0,3.475,2.606A3.57,3.57,0,0,0,210.8,416.506Z" fill="#282828"/>
        <path id="Path_9" data-name="Path 9" d="M381.859,403.775v2.693a70.846,70.846,0,0,0,.3,7.689,7.282,7.282,0,0,0,1.26,3.735,3.586,3.586,0,0,0,2.954,1.173,3.718,3.718,0,0,0,3.692-2.085q1-2.085,1.086-6.95l10.338.608a16.275,16.275,0,0,1,.087,1.911q0,7.386-4.039,11.034t-11.425,3.649q-8.86,0-12.424-5.561t-3.562-17.2v-9.3q0-11.99,3.693-17.506t12.641-5.517q6.168,0,9.469,2.259a12.119,12.119,0,0,1,4.648,7.037,50.844,50.844,0,0,1,1.347,13.205v9.123Zm1.519-22.415a7.34,7.34,0,0,0-1.216,3.692,72,72,0,0,0-.3,7.776v3.823h8.773v-3.823a65.042,65.042,0,0,0-.346-7.776,7.459,7.459,0,0,0-1.26-3.735,3.484,3.484,0,0,0-2.824-1.086A3.418,3.418,0,0,0,383.378,381.36Z" fill="#282828"/>
        <path id="Path_10" data-name="Path 10" d="M168.144,402.777,154.5,353.518h11.9l4.778,22.328q1.825,8.254,2.693,14.073h.348q.607-4.17,2.693-13.986l4.952-22.415h11.9l-13.813,49.259v23.632H168.144Z" fill="#282828"/>
        <path id="Path_11" data-name="Path 11" d="M262.588,373.154v53.255h-9.383l-1.042-6.516H251.9q-3.823,7.386-11.468,7.385-5.3,0-7.818-3.475t-2.52-10.86V373.154h11.989v39.094a11.935,11.935,0,0,0,.782,5.083,2.7,2.7,0,0,0,2.606,1.52,5.314,5.314,0,0,0,3-.956,5.921,5.921,0,0,0,2.129-2.432V373.154Z" fill="#282828"/>
        <path id="Path_12" data-name="Path 12" d="M324.084,373.154v53.255H314.7l-1.042-6.516H313.4q-3.824,7.386-11.468,7.385-5.3,0-7.819-3.475t-2.519-10.86V373.154h11.989v39.094a11.935,11.935,0,0,0,.782,5.083,2.7,2.7,0,0,0,2.606,1.52,5.314,5.314,0,0,0,3-.956,5.921,5.921,0,0,0,2.129-2.432V373.154Z" fill="#282828"/>
        <path id="Path_13" data-name="Path 13" d="M295.166,363.163h-11.9v63.246H271.536V363.163h-11.9v-9.644h35.532Z" fill="#282828"/>
        <path id="Path_14" data-name="Path 14" d="M363.763,381.667q-1.088-5.037-3.519-7.3a9.447,9.447,0,0,0-6.689-2.259,11.089,11.089,0,0,0-6.168,1.868,12.692,12.692,0,0,0-4.431,4.908h-.088V350.826H331.315v75.583h9.9l1.217-5.039h.26a10.169,10.169,0,0,0,4.17,4.257,12.369,12.369,0,0,0,6.169,1.563,9.44,9.44,0,0,0,8.948-5.6q2.867-5.6,2.867-17.506v-8.427A69.992,69.992,0,0,0,363.763,381.667Zm-10.99,21.723a67.36,67.36,0,0,1-.478,9.121,9.86,9.86,0,0,1-1.607,4.692,3.715,3.715,0,0,1-3.04,1.39,5.561,5.561,0,0,1-2.737-.695,5.244,5.244,0,0,1-2.042-2.085V385.58a7.577,7.577,0,0,1,2.085-3.562,4.61,4.61,0,0,1,3.215-1.39,3.242,3.242,0,0,1,2.823,1.433,11.029,11.029,0,0,1,1.39,4.822,89.859,89.859,0,0,1,.391,9.643Z" fill="#282828"/>
      </g>
    </g>
  </g>
</svg>
